# xmcd
# 
# Track frame offsets:
#     150
#     17489
#     30543
#     42377
#     56676
#     70506
#     85810
#     101149
#     117111
#     131282
#     147119
#     162133
#     178936
#     194509
#     212121
# 
# Disc length: 3027
# 
# Revision: 1
# Processed by: cddbd v1.5.2PL0 Copyright (c) Steve Scherf et al.
# Submitted via: fre:ac v1.0.31
# 
DISCID=cb0bd10f
DTITLE=ยอดรัก สลักใจ - ดีที่สุด 1
DYEAR=0
DGENRE=Country
TTITLE0=มนต์รักลูกทุ่ง
TTITLE1=จักรยานคนจน
TTITLE2=กำนันกำใน
TTITLE3=ทหารใหม่ไปกอง
TTITLE4=ขาดคนหุงข้าว
TTITLE5=รักครึ่งทาง
TTITLE6=ครูประชาบาล
TTITLE7=รักน้องเมีย
TTITLE8=เด็กมันยั่ว
TTITLE9=รักเผื่อเลือก
TTITLE10=ไอ้หนุ่มตู้เพลง
TTITLE11=เปลี่ยนรักเปลี่ยนรถ
TTITLE12=ไม่มีเวลาไปหาเมียน้อย
TTITLE13=คนหัวใจโทรม
TTITLE14=โชคดีที่รัก
EXTD=
EXTT0=
EXTT1=
EXTT2=
EXTT3=
EXTT4=
EXTT5=
EXTT6=
EXTT7=
EXTT8=
EXTT9=
EXTT10=
EXTT11=
EXTT12=
EXTT13=
EXTT14=
PLAYORDER=
